<mxfile host="Electron" modified="2023-11-07T15:33:26.216Z" agent="Mozilla/5.0 (Macintosh; Intel Mac OS X 10_15_7) AppleWebKit/537.36 (KHTML, like Gecko) draw.io/22.0.3 Chrome/114.0.5735.289 Electron/25.8.4 Safari/537.36" etag="VycFY9hpSpxSzx0dd5Mr" version="22.0.3" type="device">
  <diagram name="Page-1" id="vEAo8bHu_vOVaTQ4HB_v">
    <mxGraphModel dx="954" dy="727" grid="0" gridSize="10" guides="1" tooltips="1" connect="1" arrows="1" fold="1" page="1" pageScale="1" pageWidth="850" pageHeight="1100" math="0" shadow="0">
      <root>
        <mxCell id="0" />
        <mxCell id="1" parent="0" />
        <mxCell id="Xn2-vsX4O3X6EcpAgIVm-8" style="edgeStyle=orthogonalEdgeStyle;rounded=0;orthogonalLoop=1;jettySize=auto;html=1;comic=1;enumerate=0;jiggle=2;flowAnimation=1;noJump=0;" edge="1" parent="1" source="Xn2-vsX4O3X6EcpAgIVm-1" target="Xn2-vsX4O3X6EcpAgIVm-3">
          <mxGeometry relative="1" as="geometry" />
        </mxCell>
        <mxCell id="Xn2-vsX4O3X6EcpAgIVm-1" value="Amplify&lt;br&gt;WebHosting" style="sketch=0;points=[[0,0,0],[0.25,0,0],[0.5,0,0],[0.75,0,0],[1,0,0],[0,1,0],[0.25,1,0],[0.5,1,0],[0.75,1,0],[1,1,0],[0,0.25,0],[0,0.5,0],[0,0.75,0],[1,0.25,0],[1,0.5,0],[1,0.75,0]];outlineConnect=0;fontColor=#232F3E;fillColor=#DD344C;strokeColor=#ffffff;dashed=0;verticalLabelPosition=bottom;verticalAlign=top;align=center;html=1;fontSize=12;fontStyle=0;aspect=fixed;shape=mxgraph.aws4.resourceIcon;resIcon=mxgraph.aws4.amplify;comic=1;enumerate=0;jiggle=2;" vertex="1" parent="1">
          <mxGeometry x="210" y="358" width="78" height="78" as="geometry" />
        </mxCell>
        <mxCell id="Xn2-vsX4O3X6EcpAgIVm-10" style="edgeStyle=orthogonalEdgeStyle;rounded=0;orthogonalLoop=1;jettySize=auto;html=1;comic=1;enumerate=0;jiggle=2;flowAnimation=1;" edge="1" parent="1" source="Xn2-vsX4O3X6EcpAgIVm-2" target="Xn2-vsX4O3X6EcpAgIVm-4">
          <mxGeometry relative="1" as="geometry" />
        </mxCell>
        <mxCell id="Xn2-vsX4O3X6EcpAgIVm-2" value="AWS Lambda&lt;br&gt;Processing" style="sketch=0;points=[[0,0,0],[0.25,0,0],[0.5,0,0],[0.75,0,0],[1,0,0],[0,1,0],[0.25,1,0],[0.5,1,0],[0.75,1,0],[1,1,0],[0,0.25,0],[0,0.5,0],[0,0.75,0],[1,0.25,0],[1,0.5,0],[1,0.75,0]];outlineConnect=0;fontColor=#232F3E;fillColor=#ED7100;strokeColor=#ffffff;dashed=0;verticalLabelPosition=bottom;verticalAlign=top;align=center;html=1;fontSize=12;fontStyle=0;aspect=fixed;shape=mxgraph.aws4.resourceIcon;resIcon=mxgraph.aws4.lambda;comic=1;enumerate=0;jiggle=2;" vertex="1" parent="1">
          <mxGeometry x="485" y="358" width="78" height="78" as="geometry" />
        </mxCell>
        <mxCell id="Xn2-vsX4O3X6EcpAgIVm-9" style="edgeStyle=orthogonalEdgeStyle;rounded=0;orthogonalLoop=1;jettySize=auto;html=1;comic=1;enumerate=0;jiggle=2;flowAnimation=1;noJump=0;" edge="1" parent="1" source="Xn2-vsX4O3X6EcpAgIVm-3" target="Xn2-vsX4O3X6EcpAgIVm-2">
          <mxGeometry relative="1" as="geometry" />
        </mxCell>
        <mxCell id="Xn2-vsX4O3X6EcpAgIVm-3" value="API Gateway&lt;br&gt;Invoke Function" style="sketch=0;points=[[0,0,0],[0.25,0,0],[0.5,0,0],[0.75,0,0],[1,0,0],[0,1,0],[0.25,1,0],[0.5,1,0],[0.75,1,0],[1,1,0],[0,0.25,0],[0,0.5,0],[0,0.75,0],[1,0.25,0],[1,0.5,0],[1,0.75,0]];outlineConnect=0;fontColor=#232F3E;fillColor=#8C4FFF;strokeColor=#ffffff;dashed=0;verticalLabelPosition=bottom;verticalAlign=top;align=center;html=1;fontSize=12;fontStyle=0;aspect=fixed;shape=mxgraph.aws4.resourceIcon;resIcon=mxgraph.aws4.api_gateway;comic=1;enumerate=0;jiggle=2;" vertex="1" parent="1">
          <mxGeometry x="340" y="358" width="78" height="78" as="geometry" />
        </mxCell>
        <mxCell id="Xn2-vsX4O3X6EcpAgIVm-4" value="DynamoDB&lt;br&gt;Store Values" style="sketch=0;points=[[0,0,0],[0.25,0,0],[0.5,0,0],[0.75,0,0],[1,0,0],[0,1,0],[0.25,1,0],[0.5,1,0],[0.75,1,0],[1,1,0],[0,0.25,0],[0,0.5,0],[0,0.75,0],[1,0.25,0],[1,0.5,0],[1,0.75,0]];outlineConnect=0;fontColor=#232F3E;fillColor=#0000CC;strokeColor=#ffffff;dashed=0;verticalLabelPosition=bottom;verticalAlign=top;align=center;html=1;fontSize=12;fontStyle=0;aspect=fixed;shape=mxgraph.aws4.resourceIcon;resIcon=mxgraph.aws4.dynamodb;comic=1;enumerate=0;jiggle=2;" vertex="1" parent="1">
          <mxGeometry x="620" y="358" width="78" height="78" as="geometry" />
        </mxCell>
        <mxCell id="Xn2-vsX4O3X6EcpAgIVm-5" value="Identity &amp;amp; Access Management" style="sketch=0;points=[[0,0,0],[0.25,0,0],[0.5,0,0],[0.75,0,0],[1,0,0],[0,1,0],[0.25,1,0],[0.5,1,0],[0.75,1,0],[1,1,0],[0,0.25,0],[0,0.5,0],[0,0.75,0],[1,0.25,0],[1,0.5,0],[1,0.75,0]];outlineConnect=0;fontColor=#232F3E;fillColor=#DD344C;strokeColor=#ffffff;dashed=0;verticalLabelPosition=bottom;verticalAlign=top;align=center;html=1;fontSize=12;fontStyle=0;aspect=fixed;shape=mxgraph.aws4.resourceIcon;resIcon=mxgraph.aws4.identity_and_access_management;comic=1;enumerate=0;jiggle=2;" vertex="1" parent="1">
          <mxGeometry x="210" y="511" width="78" height="78" as="geometry" />
        </mxCell>
        <mxCell id="Xn2-vsX4O3X6EcpAgIVm-7" style="edgeStyle=orthogonalEdgeStyle;rounded=0;orthogonalLoop=1;jettySize=auto;html=1;comic=1;enumerate=0;jiggle=2;flowAnimation=1;noJump=0;" edge="1" parent="1" source="Xn2-vsX4O3X6EcpAgIVm-6" target="Xn2-vsX4O3X6EcpAgIVm-1">
          <mxGeometry relative="1" as="geometry" />
        </mxCell>
        <mxCell id="Xn2-vsX4O3X6EcpAgIVm-6" value="" style="outlineConnect=0;dashed=0;verticalLabelPosition=bottom;verticalAlign=top;align=center;html=1;shape=mxgraph.aws3.users;fillColor=#D2D3D3;gradientColor=none;comic=1;enumerate=0;jiggle=2;" vertex="1" parent="1">
          <mxGeometry x="40" y="365.5" width="66" height="63" as="geometry" />
        </mxCell>
        <mxCell id="Xn2-vsX4O3X6EcpAgIVm-17" value="1" style="text;html=1;align=center;verticalAlign=middle;resizable=0;points=[];autosize=1;strokeColor=none;fillColor=none;fontStyle=1;fontSize=15;comic=1;enumerate=0;jiggle=2;" vertex="1" parent="1">
          <mxGeometry x="150" y="335.5" width="30" height="30" as="geometry" />
        </mxCell>
        <mxCell id="Xn2-vsX4O3X6EcpAgIVm-18" value="&lt;font style=&quot;font-size: 15px;&quot;&gt;&lt;b&gt;2&lt;/b&gt;&lt;/font&gt;" style="text;html=1;align=center;verticalAlign=middle;resizable=0;points=[];autosize=1;strokeColor=none;fillColor=none;comic=1;enumerate=0;jiggle=2;" vertex="1" parent="1">
          <mxGeometry x="300" y="335.5" width="30" height="30" as="geometry" />
        </mxCell>
        <mxCell id="Xn2-vsX4O3X6EcpAgIVm-19" value="3" style="text;html=1;align=center;verticalAlign=middle;resizable=0;points=[];autosize=1;strokeColor=none;fillColor=none;fontSize=15;fontStyle=1;comic=1;enumerate=0;jiggle=2;" vertex="1" parent="1">
          <mxGeometry x="440" y="335.5" width="30" height="30" as="geometry" />
        </mxCell>
        <mxCell id="Xn2-vsX4O3X6EcpAgIVm-20" value="&lt;font style=&quot;font-size: 15px;&quot;&gt;&lt;b&gt;4&lt;/b&gt;&lt;/font&gt;" style="text;html=1;align=center;verticalAlign=middle;resizable=0;points=[];autosize=1;strokeColor=none;fillColor=none;comic=1;enumerate=0;jiggle=2;" vertex="1" parent="1">
          <mxGeometry x="570" y="335.5" width="30" height="30" as="geometry" />
        </mxCell>
      </root>
    </mxGraphModel>
  </diagram>
</mxfile>
